<svg width="1326" height="604" viewBox="0 0 1326 604" fill="none" xmlns="http://www.w3.org/2000/svg">
<path d="M8.1322 242.279C11.4484 248.801 18.4167 254.884 19.6518 262.295C20.4679 265.151 23.8475 265.975 24.0636 269.648C24.4601 276.388 25.8711 283.49 29.2106 289.501C31.0332 292.782 32.9213 295.659 35.0113 298.733C36.3013 300.63 37.4091 301.507 39.423 302.083C40.9722 302.525 39.814 305.333 40.8936 306.413C44.3703 309.889 48.818 310.7 50.5342 316.707C53.287 326.342 60.9505 332.285 65.3217 340.481C75.0808 358.779 78.4153 381.281 81.0897 401.674C82.9068 415.53 85.8283 429.744 85.8283 443.749V486.151C85.8283 497.437 87.0327 512.029 95.4688 520.465C104.505 529.501 116.188 539.722 128.394 543.994C141.897 548.721 156.475 547.589 170.796 547.589C196.657 547.589 225.802 544.175 250.861 550.857C258.672 552.94 266.863 554.094 273.9 558.618C278.927 561.85 284.676 565.495 290.894 566.625C296.89 567.715 304.635 574.156 310.175 577.001C316.494 580.246 323.053 582.766 329.946 584.681C335.369 586.187 339.553 589.272 345.305 590.318C347.358 590.691 350.502 592.982 351.678 594.648C353.495 597.222 358.773 596.242 361.645 596.935C369.652 598.868 375.177 602.001 383.541 602.001C394.522 602.001 404.494 600.878 415.403 599.06C436.174 595.598 456.365 588.226 475.861 580.759C485.883 576.921 496.619 574.701 506.988 571.69C512.16 570.189 516.235 567.575 521.613 566.38C525.17 565.589 529.856 564.081 532.969 562.213C551.662 550.997 570.076 554.942 590.24 554.942H631.417C643.928 554.942 654.965 560.562 667.364 561.968C677.688 563.139 688.169 563.956 698.41 565.563C706.99 566.909 715.481 565.835 724.064 566.788C730.682 567.524 736.351 571.153 742.446 572.507C747.42 573.613 754.652 573.88 759.685 574.06C766.245 574.294 767.717 578.471 774.064 578.471C787.845 578.471 798.134 578.243 810.992 573.243C856.361 555.599 901.498 538.285 946.204 518.913C957.212 514.142 966.512 515.333 977.658 512.622C984.976 510.842 993.369 508.224 1000.86 507.883C1015.72 507.208 1032.45 507.657 1046.94 504.207C1054.09 502.505 1062.04 503.633 1069.32 503.471C1075.31 503.338 1081.13 502.001 1087.3 502.001H1136.56C1154.74 502.001 1176.08 500.132 1193.51 494.321C1200.22 492.085 1207.03 491.384 1213.77 489.419C1221.46 487.175 1228.08 482.218 1236.4 481.494C1245.22 480.727 1253.86 480.298 1260.83 474.06C1265.21 470.139 1274.15 464.636 1279.86 463.684C1291.48 461.747 1293.86 449.754 1302 444.321C1306.15 441.56 1307.89 426.611 1307.89 421.772C1307.89 414.42 1305.83 407.931 1305.03 400.694C1304.3 394.139 1301.07 389.512 1299.39 383.21C1297.99 377.971 1294.17 373.525 1293.34 368.177C1292.24 360.999 1293.18 353.036 1293.18 345.792C1293.18 326.017 1297.3 307.509 1299.15 288.112C1299.69 282.392 1301.25 277.531 1304.13 272.589C1306.8 268.006 1307.35 263.49 1311.16 259.681C1317.12 253.714 1321.81 246.598 1322.92 238.112C1324.9 222.95 1324.03 208.053 1322.59 192.932C1321.97 186.416 1322.34 178.949 1320.8 172.589C1319.91 168.936 1317.17 166.036 1316.79 162.213C1315.77 152.029 1313.49 145.328 1306.74 137.295C1303.21 133.086 1297.34 124.116 1292.53 121.445C1287.89 118.867 1284.73 115.078 1279.86 112.949C1273.76 110.278 1268.3 107.96 1261.97 106.086C1249.9 102.509 1237.37 100.53 1224.64 100.53C1202.57 100.53 1175.82 100.218 1154.95 92.8505C1139.17 87.2832 1122.18 82.811 1105.84 79.2884C1100.15 78.0598 1094.41 77.5384 1089.42 74.3865C1085.07 71.637 1079.55 72.5944 1074.88 70.3832C1068.55 67.3832 1063.96 62.2884 1057.56 59.6806C1054.74 58.5309 1052.83 55.4903 1049.8 55.0237C1045.65 54.3854 1041.39 54.2217 1037.3 53.1446C1032.54 51.8925 1028.87 49.1713 1023.74 49.0597C1020.01 48.9787 1017.04 49.1837 1013.69 47.5074C1006.54 43.9358 996.69 38.6769 988.769 37.4584C977.347 35.7011 968.351 28.9932 956.09 28.4714C947.809 28.1191 938.026 23.9838 930.273 21.1185C915.636 15.7091 897.642 11.7169 882.315 8.78189C871.978 6.8024 859.74 4.94202 849.227 4.94202C837.636 4.94202 826.315 2.00085 814.995 2.00085C793.642 2.00085 772.734 1.87724 751.515 4.61523C740.156 6.0809 729.101 10.8244 717.528 10.8244C706.758 10.8244 699.063 19.6479 688.034 19.6479C676.609 19.6479 657.201 22.6868 647.266 27.6544C631.668 35.4534 614.857 40.5662 598.737 47.2623C588.333 51.5837 578.868 53.7452 567.936 55.759C552.994 58.5115 538.78 63.0124 523.982 65.8897C508.533 68.8937 492.556 66.9661 477.005 68.5041C459.72 70.2136 443.247 72.5891 425.861 72.5891C393.313 72.5891 360.73 73.2215 328.475 72.5891C319.241 72.408 306.575 70.1738 298.328 65.808C290.084 61.4434 282.951 61.7302 274.064 60.7427C261.462 59.3425 249.488 54.942 236.972 54.942C231.368 54.942 219.875 52.6795 215.158 55.9224C208.033 60.8212 198.494 63.7966 189.668 65.1544C178.741 66.8356 166.959 69.1817 158.867 76.674C149.558 85.2942 136.482 88.7089 125.452 94.6479C113.494 101.087 100.152 102.905 86.8087 104.615C81.3892 105.31 78.0302 107.581 72.593 107.883C68.5517 108.108 62.8937 113.393 59.3577 115.236C51.6252 119.266 44.3851 124.339 37.2172 129.288C26.6876 136.559 16.5025 146.053 11.5636 158.21C4.76461 174.946 1.86589 193.401 2.00475 211.315C2.08645 221.853 3.28626 232.748 8.1322 242.279Z" stroke="white" stroke-width="3" stroke-linecap="round"/>
</svg>
