<svg width="1321" height="616" viewBox="0 0 1321 616" fill="none" xmlns="http://www.w3.org/2000/svg">
<path d="M731.799 40.7115C713.452 40.7115 697.123 47.1338 679.709 51.7165C662.447 56.2591 645.75 64.0731 629.412 71.5256C614.932 78.1304 600.672 88.2533 585.392 92.8834C574.775 96.1007 562.662 95.0029 551.725 95.0029C541.771 95.0029 532.328 97.9376 522.46 97.9376C510.522 97.9376 499.854 101.421 488.14 102.258C465.39 103.883 442.077 102.34 419.257 102.34C394.132 102.34 369.436 96.4703 344.423 96.4703C332.385 96.4703 321.292 94.7278 309.37 93.5356C297.638 92.3624 285.024 93.6234 273.502 91.7422C264.498 90.2722 255.321 91.4262 246.438 89.1336C237.63 86.8606 226.981 86.487 217.906 86.1989C211.182 85.9855 205.195 83.2642 198.505 83.2642C189.877 83.2642 182.682 83.8433 174.946 79.6774C166.959 75.3767 157.457 75.715 153.996 65.3301C150.217 53.9938 147.818 42.6094 149.349 30.3587C150.005 25.1069 161.186 11.2408 166.223 9.89749C170.715 8.69959 178.388 8.57433 182.201 6.14763C186.733 3.26391 191.274 4.77209 196.222 2.88689C215.196 -4.34134 219.639 34.7135 211.222 43.9723C207.534 48.0285 206.857 53.6154 204.374 58.3195C199.535 67.4874 189.984 71.3221 183.994 79.3513C176.22 89.7719 165.433 101.237 160.191 113.1C157.629 118.898 141.687 115.247 135.98 115.627C124.966 116.361 114.355 123.344 103.78 126.143C87.9819 130.325 72.0067 135.81 56.2547 141.061C46.1604 144.426 37.8725 147.063 29.0275 153.696C23.1337 158.117 13.8814 163.051 12.0716 170.652C9.37333 181.985 2.85907 194.817 2.53397 206.52C2.07547 223.026 0.245935 241.725 7.66964 256.573C17.3985 276.03 27.9575 297.642 42.5596 313.962C45.6222 317.385 47.2572 322.331 50.1408 325.375C54.5937 330.075 55.453 336.146 58.7818 342.004C63.3602 350.062 64.1175 359.688 67.0967 368.253C69.6604 375.624 73.8324 382.842 75.9007 390.263C78.941 401.172 77.3681 413.872 77.3681 425.072C77.3681 440.483 73.6953 462.674 78.5093 477.651C82.1798 489.071 78.2353 503.123 84.0526 513.927C87.4627 520.26 88.0716 526.988 94.1609 531.454C100.829 536.344 109.528 540.304 117.312 542.866C138.808 549.941 161.289 548.409 183.587 548.409C189.782 548.409 195.978 548.409 202.173 548.409C212.153 548.409 225.518 546.059 235.025 549.062C261.243 557.341 283.999 574.272 310.104 582.973C329.567 589.461 347.352 598.296 365.292 608.081C376.309 614.09 388.849 615.571 401.16 613.706C412.084 612.051 422.167 608.57 433.197 608.57C443.312 608.57 450.617 608.431 459.853 604.494C482.162 594.985 500.268 580.583 524.172 574.169C542.628 569.218 560.577 557.712 580.012 557.214C591.832 556.91 603.513 554.279 615.88 554.279C634.928 554.279 654.363 555.951 672.78 561.045C691.692 566.276 710.634 570.679 729.599 575.555C743.967 579.25 758.418 587.327 772.559 592.43C780.179 595.179 789.606 603.741 797.177 598.625C804.455 593.708 817.22 594.356 825.872 593.815C835.871 593.19 847.098 591.024 856.686 588.028C869.292 584.088 880.665 577.065 893.369 573.436C907.347 569.442 922.366 568.417 936.167 563.816C946.472 560.381 956.712 556.587 967.062 553.138C986.417 546.686 999.812 536.733 1015.48 523.628C1025.54 515.221 1030.64 513.193 1042.87 513.193C1067.02 513.193 1091.23 508.791 1115.59 508.791C1139.34 508.791 1162.05 510.981 1185.37 515.476C1197.95 517.901 1207.65 508.575 1218.3 503.248C1224.36 500.22 1231.07 497.665 1237.7 496.238C1244.22 494.836 1250.08 495.651 1256.29 492.651C1268.61 486.701 1278.52 483.687 1282.21 469.173C1284.75 459.191 1287.75 449.136 1289.96 439.093C1291.15 433.649 1290.87 427.958 1292.97 422.708C1298.01 410.106 1298.19 399.504 1298.19 385.943C1298.19 374.322 1294.06 365.282 1292.4 353.988C1290.74 342.648 1293 334.124 1293.71 322.766C1294.52 309.78 1293.56 291.724 1301.45 280.539C1309.71 268.838 1313.61 250.88 1317.92 237.334C1320.96 227.762 1318.26 214.279 1316.45 205.135C1313.15 188.428 1310.26 172.494 1299.98 158.914C1293.36 150.157 1287.92 134.057 1278.46 128.752C1268.99 123.44 1258.08 119.292 1248.3 114.404C1235.79 108.148 1222.49 109.676 1208.85 109.676C1190.89 109.676 1173.15 111.144 1155.21 111.144C1147.16 111.144 1140.78 109.75 1133.03 108.535C1126.5 107.511 1119.24 109.817 1113.23 106.579C1096.12 97.3697 1076.78 95.7728 1059.26 87.0141C1055.19 84.9793 1052.8 85.1423 1048.5 84.5685C1041.98 83.6997 1037.01 79.5134 1031.22 76.8243C1021.86 72.4796 1010.29 76.3658 1001.79 72.3408C984.38 64.0942 969.927 53.9821 950.432 50.9829C933.252 48.3397 915.793 48.9257 898.75 45.4396C875.341 40.6515 852.715 39.2442 828.644 39.2442C812.631 39.2442 797.359 36.3095 781.689 36.3095" stroke="white" stroke-width="3" stroke-linecap="round"/>
</svg>
