<svg width="1437" height="729" viewBox="0 0 1437 729" fill="none" xmlns="http://www.w3.org/2000/svg">
<path d="M762.5 61.4999C718.5 95 578.8 152.8 372 116C229.382 90.6211 152 144.5 98.5001 193.178C29.8334 248.618 -69.8999 378.3 80.5001 453.5C268.5 547.5 197.5 569 281.5 636.5C365.5 704 523.5 689 657 636.5C763.8 594.5 941.167 610 1016.5 623C1076.33 637.833 1223 656.3 1331 611.5C1439 566.7 1443 466.5 1431.5 422C1422.67 410 1408 377.8 1420 345C1435 304 1385.5 221 1308 208C1246 197.6 1177.83 132.333 1151.5 101C997.5 -58.6001 828 8.16661 762.5 61.4999Z" fill="#FFB500"/>
<path d="M1235 124C1056.2 190 793.5 80.4999 684.5 17.4999C632 -17.0001 522.5 35.5 504.5 52C490.1 65.2 354.5 46.5 288.5 35.5C197 29.5 30.5 33.9999 96.5 99.9999C162.5 166 136 276.5 114.5 323.5C88.5 398 48.5 553.9 96.5 581.5C156.5 616 294.5 613 456.5 565C586.1 526.6 697.5 560 737 581.5C751.5 615.5 836 690.7 1058 719.5C1280 748.3 1313.5 692.5 1302.5 661C1261.7 584.2 1331.5 442 1371.5 380.5C1390.5 340 1421.3 242.2 1392.5 175C1363.7 107.8 1275.5 113 1235 124Z" fill="#151515"/>
<path d="M762.5 61.4999C718.5 95 578.8 152.8 372 116C229.382 90.6211 152 144.5 98.5001 193.178C29.8334 248.618 -69.8999 378.3 80.5001 453.5C268.5 547.5 197.5 569 281.5 636.5C365.5 704 523.5 689 657 636.5C763.8 594.5 941.167 610 1016.5 623C1076.33 637.833 1223 656.3 1331 611.5C1439 566.7 1443 466.5 1431.5 422C1422.67 410 1408 377.8 1420 345C1435 304 1385.5 221 1308 208C1246 197.6 1177.83 132.333 1151.5 101C997.5 -58.6001 828 8.16661 762.5 61.4999Z" stroke="#FFB500" stroke-width="2"/>
<path d="M1235 124C1056.2 190 793.5 80.4999 684.5 17.4999C632 -17.0001 522.5 35.5 504.5 52C490.1 65.2 354.5 46.5 288.5 35.5C197 29.5 30.5 33.9999 96.5 99.9999C162.5 166 136 276.5 114.5 323.5C88.5 398 48.5 553.9 96.5 581.5C156.5 616 294.5 613 456.5 565C586.1 526.6 697.5 560 737 581.5C751.5 615.5 836 690.7 1058 719.5C1280 748.3 1313.5 692.5 1302.5 661C1261.7 584.2 1331.5 442 1371.5 380.5C1390.5 340 1421.3 242.2 1392.5 175C1363.7 107.8 1275.5 113 1235 124Z" stroke="#FFB500" stroke-width="2"/>
</svg>
