<svg width="413" height="252" viewBox="0 0 413 252" fill="none" xmlns="http://www.w3.org/2000/svg">
<path d="M322 50C334.632 57.393 351.585 72.6317 366.484 91.5274C391.97 123.851 404.72 156.292 394.962 163.986C385.469 171.47 358.173 152.779 333.233 122" stroke="black"/>
<path d="M230.027 128.5C226.858 138.858 223.755 150.295 223.5 155.641C223.1 164.041 218.333 167.808 216 168.641C213.333 171.141 208 178.241 208 186.641C201.237 188.101 188.946 195.269 188.647 212.5M328.495 129.5C334.835 141.113 346.494 153.328 348.5 158.141C350.547 163.054 347.565 172.661 349.438 179C355.124 181.046 364.843 190.556 360.85 212.5" stroke="black" stroke-linecap="round"/>
<path d="M227.626 58.5136C215.776 70.0373 202.051 87.5936 189.265 108.444C163.713 150.111 151.587 189.154 162.181 195.651C172.774 202.147 202.075 173.635 227.626 131.969C228.645 130.308 229.525 129.151 230.5 127.5" stroke="black"/>
<path d="M305.5 138C306.518 137.551 307.519 137.08 308.5 136.588M221.226 107.5C219.122 101.811 218 95.6073 218 89C218 58.0721 245.087 33 278.5 33C311.913 33 339 58.0721 339 89C339 93.9046 338.367 98.5856 337.163 103" stroke="black"/>
<path d="M337 102.5C337.281 104.28 337 105.119 337 107C337 122.74 326.703 135.5 314 135.5C311.743 135.5 310.561 137.597 308.5 136.846" stroke="black"/>
<path d="M256 140.5C264.5 147 278.431 148 283.5 148C287 148 297.5 146.5 305.5 138" stroke="black"/>
<path d="M256 140.5C243.297 140.5 221 126.002 221 107.5" stroke="black"/>
<path d="M287.614 106.484C289.629 106.484 290.801 106.17 292.607 105.38C294.338 104.623 294.651 103.428 296.195 102.519C298.422 101.21 301.19 98.726 302.066 96.0965" stroke="#39302A" stroke-width="1.5" stroke-linecap="round"/>
<path d="M271.356 97.4514C272.396 97.5814 272.998 98.5124 273.715 99.1575C274.362 99.7404 275.405 99.6061 276.098 100.161C277.186 101.031 280.095 103.322 281.518 103.322C283.073 103.322 286.227 104.999 287.263 105.932C288.625 107.158 288.969 104.793 288.969 107.136C288.969 108.398 289.421 109.396 289.421 110.649C289.421 113.163 289.872 115.819 289.872 118.451C289.872 120.692 286.739 121.147 286.234 123.419C285.894 124.951 285.203 124.752 284.252 125.702C283.83 126.125 282.231 127.099 282.195 127.71C282.138 128.674 280.969 129.152 280.389 130.168C280.273 130.37 277.606 130.871 278.131 130.871" stroke="#39302A" stroke-width="1.5" stroke-linecap="round"/>
<path d="M289.421 119.129C290.192 119.996 290.582 121.813 291.227 122.942C291.413 123.267 293.763 124.886 294.163 124.975C295.5 125.272 296.065 126.719 297.55 126.806C298.674 126.872 298.722 128.613 300.26 128.613" stroke="#39302A" stroke-width="1.5" stroke-linecap="round"/>
<ellipse cx="311.527" cy="75.6976" rx="6.76865" ry="8.35115" transform="rotate(13.4637 311.527 75.6976)" fill="#2C2C2C"/>
<ellipse cx="6.76865" cy="8.35115" rx="6.76865" ry="8.35115" transform="matrix(-0.947452 0.319898 0.319898 0.947452 258.826 69)" fill="#2C2C2C"/>
<path d="M309 68.657C309.471 68.6667 311.292 67.2463 311.647 66.9429C312.298 66.3863 313.352 66.7175 314.105 66.9595C314.889 67.2115 315.83 67.3016 316.651 67.4099C316.904 67.4432 317.115 67.3614 317.346 67.3278C317.654 67.0593 318.073 67.3517 317.592 67.3169C317.506 67.3106 317.425 67.3164 317.346 67.3278C317.333 67.3389 317.321 67.3509 317.309 67.3639C316.946 67.7487 316.064 67.7693 315.531 68.1306C315.371 68.2392 314.667 68.3424 314.469 68.3162L313.088 68.1341C312.407 68.0442 311.807 67.902 311.151 68.0958C310.977 68.1471 310.74 68.693 310.468 68.657C310.205 68.6224 309.305 68.6972 309 68.657Z" fill="#2C2C2C"/>
<path d="M309 68.657C309.471 68.6667 311.292 67.2463 311.647 66.9429C312.298 66.3863 313.352 66.7175 314.105 66.9595C314.889 67.2115 315.83 67.3016 316.651 67.4099C316.99 67.4546 317.253 67.2923 317.592 67.3169C318.093 67.3531 317.618 67.0347 317.309 67.3639C316.946 67.7487 316.064 67.7693 315.531 68.1306C315.371 68.2392 314.667 68.3424 314.469 68.3162C314.009 68.2555 313.548 68.1948 313.088 68.1341C312.407 68.0442 311.807 67.902 311.151 68.0958C310.977 68.1471 310.74 68.693 310.468 68.657C310.205 68.6224 309.305 68.6972 309 68.657Z" stroke="#2C2C2C" stroke-linecap="round"/>
<path d="M255.7 70.8355C255.946 71.2283 256.568 71.572 256.908 71.9117C256.009 71.9117 254.934 72.2346 254.056 72.2346C253.508 72.2346 253.086 72.3639 252.603 72.6053C252.049 72.8821 251.565 72.8612 251.09 73.257C250.686 73.5944 250.645 73.7414 250.074 73.7414C249.603 73.7414 249.328 73.6106 248.896 73.5321C248.527 73.465 248.087 73.5261 247.712 73.5261C247.299 73.5261 247.112 73.4001 246.738 73.3168C246.046 73.1632 248.135 73.0648 248.812 72.8564C249.132 72.7581 249.668 72.431 249.889 72.2107C250.257 71.8425 250.767 71.7832 251.204 71.5649C251.46 71.4371 251.55 71.1814 251.874 71.1583C252.244 71.1319 252.496 70.8971 252.818 70.7517C253.246 70.5593 253.775 70.6202 254.241 70.6202C254.561 70.6202 255.511 70.5324 255.7 70.8355Z" fill="#2C2C2C" stroke="#2C2C2C" stroke-linecap="round"/>
<ellipse cx="251" cy="77.5" rx="1" ry="1.5" fill="#F6F6F6"/>
<ellipse cx="251" cy="77.5" rx="1" ry="1.5" fill="#F6F6F6"/>
<ellipse cx="251" cy="77.5" rx="1" ry="1.5" fill="#F6F6F6"/>
<ellipse cx="257.5" cy="84" rx="1.5" ry="1" fill="#F6F6F6"/>
<ellipse cx="257.5" cy="84" rx="1.5" ry="1" fill="#F6F6F6"/>
<ellipse cx="257.5" cy="84" rx="1.5" ry="1" fill="#F6F6F6"/>
<ellipse cx="307" cy="74.5" rx="1" ry="1.5" fill="#F6F6F6"/>
<ellipse cx="307" cy="74.5" rx="1" ry="1.5" fill="#F6F6F6"/>
<ellipse cx="307" cy="74.5" rx="1" ry="1.5" fill="#F6F6F6"/>
<ellipse cx="313.5" cy="81" rx="1.5" ry="1" fill="#F6F6F6"/>
<ellipse cx="313.5" cy="81" rx="1.5" ry="1" fill="#F6F6F6"/>
<ellipse cx="313.5" cy="81" rx="1.5" ry="1" fill="#F6F6F6"/>
<path d="M302.228 61.2622C303.106 60.1823 304.624 59.2613 305.9 58.912C306.505 58.7465 306.857 58.1238 307.496 58.1054C308.285 58.0828 308.917 58.1599 309.699 57.9069C312.31 57.0633 315.15 57.9268 317.919 58.3483" stroke="#4D423A" stroke-linecap="round"/>
<path d="M259.668 64.7038C256.936 62.2762 254.413 61.7547 250.839 61.7547C248.918 61.7547 248.043 63.1171 246.561 63.9756C245.899 64.3589 245.431 65.1995 244.849 65.432C244.071 65.7432 243.218 66.0806 242.628 66.6699" stroke="#4D423A" stroke-linecap="round"/>
<circle cx="269.5" cy="110.5" r="0.5" fill="#8E8E8E"/>
<circle cx="269.5" cy="110.5" r="0.5" fill="#8E8E8E"/>
<circle cx="269.5" cy="110.5" r="0.5" fill="#8E8E8E"/>
<circle cx="269.5" cy="110.5" r="0.5" fill="#575757"/>
<circle cx="276.5" cy="111.5" r="0.5" fill="#8E8E8E"/>
<circle cx="276.5" cy="111.5" r="0.5" fill="#8E8E8E"/>
<circle cx="276.5" cy="111.5" r="0.5" fill="#8E8E8E"/>
<circle cx="276.5" cy="111.5" r="0.5" fill="#575757"/>
<circle cx="271.5" cy="115.5" r="0.5" fill="#8E8E8E"/>
<circle cx="271.5" cy="115.5" r="0.5" fill="#8E8E8E"/>
<circle cx="271.5" cy="115.5" r="0.5" fill="#8E8E8E"/>
<circle cx="271.5" cy="115.5" r="0.5" fill="#575757"/>
<circle cx="300.5" cy="110.5" r="0.5" fill="#8E8E8E"/>
<circle cx="300.5" cy="110.5" r="0.5" fill="#8E8E8E"/>
<circle cx="300.5" cy="110.5" r="0.5" fill="#8E8E8E"/>
<circle cx="300.5" cy="110.5" r="0.5" fill="#575757"/>
<circle cx="308.5" cy="110.5" r="0.5" fill="#8E8E8E"/>
<circle cx="308.5" cy="110.5" r="0.5" fill="#8E8E8E"/>
<circle cx="308.5" cy="110.5" r="0.5" fill="#8E8E8E"/>
<circle cx="308.5" cy="110.5" r="0.5" fill="#575757"/>
<circle cx="304.5" cy="114.5" r="0.5" fill="#8E8E8E"/>
<circle cx="304.5" cy="114.5" r="0.5" fill="#8E8E8E"/>
<circle cx="304.5" cy="114.5" r="0.5" fill="#8E8E8E"/>
<circle cx="304.5" cy="114.5" r="0.5" fill="#575757"/>
<path d="M33.5 178.5C25.0016 182.191 15.5723 191.343 4.349 213" stroke="black" stroke-linecap="round"/>
<path d="M43.5706 166.5C40.3181 169.174 36.9104 173.078 34.0103 178.5M118.5 167.49C128.993 179.286 131.696 196.739 130.858 213.5" stroke="black" stroke-linecap="round"/>
<path d="M48.5 100.5C38.5 97.7 24.8216 73.9985 19.2324 62.4978C8.61059 36.4329 8.40639 11.8775 18.7763 7.65161C29.1462 3.42574 46.1633 21.1297 56.785 47.1946C60.5234 56.963 67.3 79.2 64.5 90" stroke="black"/>
<path d="M49.0102 56.0953C54.1178 66.572 57.5494 76.6178 58.9761 84.3819C59.6901 88.2676 59.8964 91.5529 59.5755 94.0238C59.2515 96.5185 58.4124 98.0409 57.1813 98.6411C55.9502 99.2413 54.234 98.9646 52.0691 97.6833C49.9249 96.4142 47.4638 94.2281 44.8425 91.2723C39.6046 85.3662 33.8042 76.4752 28.6967 65.9986C23.5891 55.5219 20.1575 45.4761 18.7308 37.7119C18.0168 33.8263 17.8105 30.541 18.1314 28.0701C18.4554 25.5754 19.2945 24.053 20.5256 23.4528C21.7567 22.8526 23.4729 23.1293 25.6377 24.4106C27.782 25.6797 30.2431 27.8658 32.8644 30.8216C38.1022 36.7277 43.9027 45.6187 49.0102 56.0953Z" stroke="black"/>
<path d="M84.1437 75.5C83.2472 67.0945 83.8231 56.4698 86.1047 45.1791C91.128 20.32 102.517 1.64624 111.542 3.47005C120.568 5.29386 123.813 26.9246 118.789 51.7837C115.94 65.8822 111.352 76.9912 106 84.5" stroke="black"/>
<path d="M92.8172 77.5C92.1083 70.6813 92.7585 60.9242 94.901 50.3216C98.804 31.0068 106.181 16.2004 111.378 17.2506C116.575 18.3007 117.624 34.8098 113.721 54.1247C111.178 66.7108 107.16 77.3826 103.23 83" stroke="black"/>
<path d="M64.5 76.8616C68.5289 75.4725 73.2137 74.6941 78.6532 74.6941C99.5357 74.6941 116.993 89.2498 116.993 108.922C118.213 111.361 118.623 114.019 119.816 116.476C120.995 118.904 121.562 121.371 123.67 123.268C133 128 134 138.688 134 144.289C134 157.302 126.149 167.852 116.464 167.852C114.5 173.955 105.882 176.912 96.5 176.912C94.5547 177.344 92.5484 177.424 90.5 177.5C85.5329 177.684 86 178.266 80.5 178.266C79.3595 177.859 78.1782 177.681 77 177.5C75.8489 177.323 74.8519 176.97 73.8028 176.912C72.5764 176.843 71.8788 175.664 70.7886 175.538C69.7389 175.417 68.381 174.405 67.4311 173.955C47.1539 173.955 29.8823 159.593 29.8823 142.645C29.523 136.754 31.2239 124.124 40.9022 120.725C40.9022 113.506 41.8962 105.887 44.5 98.5" stroke="black" stroke-linecap="round"/>
<circle cx="75.3652" cy="149.768" r="0.547988" fill="#8E8E8E"/>
<circle cx="75.3652" cy="149.768" r="0.547988" fill="#8E8E8E"/>
<circle cx="75.3652" cy="149.768" r="0.547988" fill="#4D423A"/>
<circle cx="85.229" cy="150.864" r="0.547988" fill="#8E8E8E"/>
<circle cx="85.229" cy="150.864" r="0.547988" fill="#8E8E8E"/>
<circle cx="85.229" cy="150.864" r="0.547988" fill="#4D423A"/>
<circle cx="77.5573" cy="157.44" r="0.547988" fill="#8E8E8E"/>
<circle cx="77.5573" cy="157.44" r="0.547988" fill="#8E8E8E"/>
<circle cx="77.5573" cy="157.44" r="0.547988" fill="#4D423A"/>
<circle cx="126.876" cy="141.001" r="0.547988" fill="#8E8E8E"/>
<circle cx="126.876" cy="141.001" r="0.547988" fill="#8E8E8E"/>
<circle cx="126.876" cy="141.001" r="0.547988" fill="#4D423A"/>
<circle cx="125.78" cy="150.864" r="0.547988" fill="#8E8E8E"/>
<circle cx="125.78" cy="150.864" r="0.547988" fill="#8E8E8E"/>
<circle cx="125.78" cy="150.864" r="0.547988" fill="#4D423A"/>
<circle cx="131.26" cy="144.289" r="0.547988" fill="#8E8E8E"/>
<circle cx="131.26" cy="144.289" r="0.547988" fill="#8E8E8E"/>
<circle cx="131.26" cy="144.289" r="0.547988" fill="#4D423A"/>
<path d="M93.8602 137.898C94.7947 138.729 95.891 138.954 96.9283 139.547C97.8345 140.064 98.6107 141.133 99.63 141.699C101.049 142.487 104.491 143.927 105.308 145.316C106.287 146.98 107.107 144.338 107.689 144.126C108.883 143.692 109.96 143.306 110.437 141.928C110.895 140.605 111.235 139.42 111.605 138.127C111.887 137.14 112.9 136.416 113.23 135.425" stroke="#39302A" stroke-width="1.5" stroke-linecap="round"/>
<path d="M105.4 145.316V157.268" stroke="#39302A" stroke-width="1.5" stroke-linecap="round"/>
<path d="M104.576 156.444C102.905 159.414 100.735 160.935 98.9889 163.679C98.4537 164.52 97.2032 166.378 96.333 166.838C95.5769 167.239 95.5231 167.72 94.8906 168.212C94.2945 168.676 93.3099 168.672 93.036 169.22" stroke="#39302A" stroke-width="1.5" stroke-linecap="round"/>
<path d="M104.576 157.268C105.769 157.268 107.993 159.013 108.903 159.741C109.505 160.222 110.084 160.32 110.757 160.657C112.085 161.321 111.733 162.853 112.406 163.862" stroke="#39302A" stroke-width="1.5" stroke-linecap="round"/>
<path d="M52.6464 106.79C52.9573 106.556 54.0509 106.623 54.3076 106.894C54.7103 107.32 55.7022 107.452 56.2357 107.707C56.4851 107.826 56.7072 108.098 56.9668 108.237C57.2133 108.369 57.6638 108.599 57.8055 108.796C58.2318 109.391 59.0389 109.61 59.4361 110.219C59.6126 110.49 59.8732 110.699 60.131 110.902C60.4891 111.183 60.6419 111.586 60.9383 111.9C61.3902 112.378 61.9463 112.999 62.2756 113.55C62.5194 113.958 62.9088 114.177 63.0418 114.649C63.1543 115.048 62.9491 115.542 63.1146 115.92C63.3214 116.392 63.9464 117.18 63.9329 117.664" stroke="#4D423A" stroke-linecap="round"/>
<path d="M52.8978 114.149C52.5324 121.09 54.7609 132.342 64.4055 124.013C63.5287 107.793 56.3684 110.679 52.8978 114.149Z" fill="#2C2C2C" stroke="#2C2C2C" stroke-width="2" stroke-linecap="round"/>
<ellipse cx="55.6376" cy="117.437" rx="1.64396" ry="2.19195" fill="#F6F6F6"/>
<ellipse cx="55.6376" cy="117.437" rx="1.64396" ry="2.19195" fill="#F6F6F6"/>
<ellipse cx="55.6376" cy="117.437" rx="1.64396" ry="2.19195" fill="#F6F6F6"/>
<ellipse cx="60.8637" cy="123.156" rx="1.27674" ry="1.21508" transform="rotate(5.6439 60.8637 123.156)" fill="#F6F6F6"/>
<ellipse cx="60.8637" cy="123.156" rx="1.27674" ry="1.21508" transform="rotate(5.6439 60.8637 123.156)" fill="#F6F6F6"/>
<ellipse cx="60.8637" cy="123.156" rx="1.27674" ry="1.21508" transform="rotate(5.6439 60.8637 123.156)" fill="#F6F6F6"/>
<path d="M218 96.5C201.167 122 170.3 173.1 173.5 185.5C176.7 197.9 210.833 150 227.5 124.5" stroke="black" stroke-linecap="round"/>
<path d="M339 86C356.333 107 389.3 150 384.5 158C379.7 166 349.5 135 335 118.5" stroke="black" stroke-linecap="round"/>
</svg>
