<svg width="582" height="57" viewBox="0 0 582 57" fill="none" xmlns="http://www.w3.org/2000/svg">
<path d="M9.70335 42.754C7.65402 42.754 5.91402 42.406 4.48335 41.71C3.05268 40.9753 1.97002 40.028 1.23535 38.868C0.539352 37.708 0.191351 36.49 0.191351 35.214C0.191351 33.474 0.771352 31.9853 1.93135 30.748C3.13002 29.472 4.77335 28.834 6.86135 28.834C7.17069 28.834 7.40269 28.892 7.55735 29.008C7.75069 29.124 7.84735 29.2593 7.84735 29.414C7.84735 29.5687 7.59602 29.9167 7.09335 30.458C6.59069 30.9993 6.16535 31.6373 5.81735 32.372C5.46935 33.068 5.29535 33.9767 5.29535 35.098C5.29535 36.5287 5.72069 37.708 6.57135 38.636C7.42202 39.564 8.58202 40.028 10.0514 40.028C13.7247 40.028 15.5614 37.6113 15.5614 32.778V11.26C15.5614 9.67466 15.3294 8.55333 14.8654 7.896C14.4014 7.23867 13.4927 6.736 12.1394 6.388L10.9794 6.098L11.6174 4.3H23.0434L23.7974 5.112L23.0434 6.098C22.1927 7.21933 21.5934 8.43733 21.2454 9.752C20.936 11.028 20.7814 12.71 20.7814 14.798V29.588C20.7814 34.1507 19.7954 37.4953 17.8234 39.622C15.89 41.71 13.1834 42.754 9.70335 42.754ZM39.272 42.754C36.7587 42.754 34.806 42 33.414 40.492C32.022 38.9453 31.326 36.7993 31.326 34.054V20.946C31.326 20.0953 30.978 19.67 30.282 19.67H27.904L27.498 18.394C28.3874 17.466 29.47 16.712 30.746 16.132C32.0607 15.552 33.2594 15.262 34.342 15.262C34.8447 15.262 35.2507 15.4167 35.56 15.726C35.908 15.9967 36.082 16.364 36.082 16.828V32.778C36.082 34.866 36.5074 36.4707 37.358 37.592C38.2087 38.6747 39.4654 39.216 41.128 39.216C43.4867 39.216 45.3234 38.2107 46.638 36.2C47.9527 34.1507 48.61 31.328 48.61 27.732C48.61 25.18 48.4554 23.1887 48.146 21.758C47.8754 20.2887 47.334 18.858 46.522 17.466L45.884 16.654L46.522 15.9L53.018 15.262V37.36C53.018 38.4427 53.482 38.984 54.41 38.984C55.2994 38.984 56.1694 38.6747 57.02 38.056L58.064 39.39C57.2134 40.3953 56.2467 41.2073 55.164 41.826C54.12 42.4447 53.134 42.754 52.206 42.754C50.814 42.754 49.8087 42.348 49.19 41.536C48.5714 40.6853 48.262 39.39 48.262 37.65C47.4114 39.2353 46.1934 40.492 44.608 41.42C43.0227 42.3093 41.244 42.754 39.272 42.754ZM68.2874 42.754C66.8181 42.754 65.7548 42.3287 65.0974 41.478C64.4788 40.5887 64.1694 39.158 64.1694 37.186V6.562C64.1694 6.13667 64.0921 5.84666 63.9374 5.692C63.7828 5.49866 63.5121 5.402 63.1254 5.402H60.8634L60.3414 4.068C61.3468 3.14 62.5068 2.386 63.8214 1.806C65.1361 1.18733 66.3154 0.877997 67.3594 0.877997C67.8621 0.877997 68.2681 1.03266 68.5774 1.342C68.8868 1.65133 69.0414 2.05733 69.0414 2.56L68.9254 37.36C68.9254 37.94 69.0608 38.3847 69.3314 38.694C69.6021 39.0033 69.9888 39.158 70.4914 39.158C71.4581 39.158 72.3281 38.7907 73.1014 38.056L74.1454 39.39C73.2561 40.3953 72.2701 41.2073 71.1874 41.826C70.1048 42.4447 69.1381 42.754 68.2874 42.754ZM82.8722 10.854C82.2922 10.854 81.6155 10.448 80.8422 9.636C80.0688 8.824 79.6822 8.08933 79.6822 7.432C79.6822 6.77466 80.0495 6.04 80.7842 5.228C81.5575 4.416 82.2535 4.01 82.8722 4.01C83.5295 4.01 84.2448 4.416 85.0182 5.228C85.7915 6.04 86.1782 6.77466 86.1782 7.432C86.1782 8.08933 85.7915 8.824 85.0182 9.636C84.2448 10.448 83.5295 10.854 82.8722 10.854ZM84.6122 42.754C83.1815 42.754 82.1375 42.3287 81.4802 41.478C80.8615 40.5887 80.5522 39.158 80.5522 37.186V20.946C80.5522 20.482 80.4748 20.1533 80.3202 19.96C80.1655 19.7667 79.8948 19.67 79.5082 19.67H77.1302L76.7242 18.394C77.7295 17.466 78.8702 16.712 80.1462 16.132C81.4608 15.552 82.6015 15.262 83.5682 15.262C84.0708 15.262 84.4768 15.4167 84.7862 15.726C85.1342 15.9967 85.3082 16.364 85.3082 16.828V37.36C85.3082 38.5587 85.8302 39.158 86.8742 39.158C87.6862 39.158 88.5755 38.7907 89.5422 38.056L90.5282 39.39C89.5615 40.3953 88.5368 41.2073 87.4542 41.826C86.4102 42.4447 85.4628 42.754 84.6122 42.754ZM105.679 42.754C103.243 42.754 101.117 42.1933 99.2993 41.072C97.482 39.9507 96.0706 38.3847 95.0653 36.374C94.06 34.3247 93.5573 31.966 93.5573 29.298C93.5573 26.514 94.118 24.0587 95.2393 21.932C96.3606 19.8053 97.946 18.162 99.9953 17.002C102.083 15.842 104.481 15.262 107.187 15.262C110.049 15.262 112.253 16.016 113.799 17.524C115.385 19.032 116.177 20.8493 116.177 22.976C116.177 24.4453 115.771 25.8567 114.959 27.21C114.186 28.5633 113.026 29.6653 111.479 30.516C109.971 31.3667 108.193 31.792 106.143 31.792C104.983 31.792 103.727 31.5987 102.373 31.212C101.02 30.7867 100.343 30.168 100.343 29.356C100.343 29.0467 100.421 28.776 100.575 28.544C100.73 28.312 100.904 28.196 101.097 28.196C101.213 28.196 101.561 28.312 102.141 28.544C102.76 28.7373 103.553 28.834 104.519 28.834C106.646 28.834 108.289 28.254 109.449 27.094C110.609 25.934 111.189 24.542 111.189 22.918C111.189 21.526 110.725 20.3273 109.797 19.322C108.908 18.3167 107.709 17.814 106.201 17.814C103.92 17.814 102.141 18.8193 100.865 20.83C99.628 22.802 99.0093 25.6247 99.0093 29.298C99.0093 32.43 99.6666 34.8853 100.981 36.664C102.335 38.404 104.268 39.274 106.781 39.274C109.875 39.274 112.427 38.2687 114.437 36.258C114.553 36.142 114.708 36.084 114.901 36.084C115.211 36.084 115.52 36.2387 115.829 36.548C116.177 36.8573 116.351 37.186 116.351 37.534C116.351 37.65 116.313 37.766 116.235 37.882C116.158 37.9593 116.119 38.0173 116.119 38.056C114.805 39.6027 113.239 40.782 111.421 41.594C109.643 42.3673 107.729 42.754 105.679 42.754ZM156.552 56.674C154.502 56.674 152.743 56.3067 151.274 55.572C149.843 54.876 148.76 53.948 148.026 52.788C147.33 51.628 146.982 50.41 146.982 49.134C146.982 47.3553 147.562 45.8473 148.722 44.61C149.92 43.3727 151.564 42.754 153.652 42.754C154.309 42.754 154.638 42.928 154.638 43.276C154.638 43.4307 154.386 43.7593 153.884 44.262C153.381 44.8033 152.936 45.4413 152.55 46.176C152.202 46.9107 152.028 47.8387 152.028 48.96C152.028 50.3907 152.511 51.57 153.478 52.498C154.444 53.426 155.759 53.89 157.422 53.89C159.742 53.89 161.462 53.0007 162.584 51.222C163.744 49.482 164.324 46.6207 164.324 42.638V37.65C161.501 39.97 158.408 41.13 155.044 41.13C151.486 41.13 148.49 40.2987 146.054 38.636C143.618 36.9733 141.781 34.7113 140.544 31.85C139.345 28.9887 138.746 25.7793 138.746 22.222C138.746 18.8193 139.384 15.7067 140.66 12.884C141.974 10.0613 143.927 7.79933 146.518 6.098C149.147 4.39666 152.337 3.546 156.088 3.546C158.524 3.546 160.708 3.894 162.642 4.59C164.575 5.286 166.083 6.272 167.166 7.548C168.248 8.78533 168.79 10.1967 168.79 11.782C168.79 13.5993 168.248 15.088 167.166 16.248C166.122 17.408 164.788 17.988 163.164 17.988C162.661 17.988 162.352 17.9493 162.236 17.872C162.158 17.7947 162.12 17.6013 162.12 17.292C162.12 17.176 162.255 16.886 162.526 16.422C162.835 15.9193 163.086 15.3587 163.28 14.74C163.473 14.1213 163.57 13.3867 163.57 12.536C163.57 10.7187 162.874 9.24933 161.482 8.128C160.128 7.00666 158.33 6.446 156.088 6.446C153.342 6.446 151.1 7.23866 149.36 8.824C147.62 10.4093 146.363 12.3813 145.59 14.74C144.816 17.0987 144.43 19.5153 144.43 21.99C144.43 24.89 144.874 27.5387 145.764 29.936C146.653 32.3333 147.929 34.228 149.592 35.62C151.293 37.012 153.246 37.708 155.45 37.708C159.007 37.708 161.965 36.5287 164.324 34.17V31.502C164.324 29.9167 164.072 28.8147 163.57 28.196C163.106 27.5387 162.197 27.0167 160.844 26.63L159.742 26.282L160.322 24.426H171.4L172.038 25.354L171.4 26.282C170.51 27.442 169.872 28.6793 169.486 29.994C169.138 31.3087 168.964 33.01 168.964 35.098V41.13C168.964 51.4927 164.826 56.674 156.552 56.674ZM175.808 40.376L176.794 40.086C177.722 39.9313 178.321 39.5833 178.592 39.042C178.901 38.462 179.056 37.4953 179.056 36.142V21.41C179.056 20.9847 178.978 20.6947 178.824 20.54C178.669 20.3467 178.398 20.25 178.012 20.25H175.75L175.228 18.858C176.233 17.93 177.393 17.176 178.708 16.596C180.022 16.016 181.182 15.726 182.188 15.726C182.69 15.726 183.096 15.8807 183.406 16.19C183.715 16.4993 183.87 16.886 183.87 17.35V23.092H184.16C184.778 20.7333 185.706 18.8387 186.944 17.408C188.22 15.9773 189.592 15.262 191.062 15.262C192.531 15.262 193.73 15.7453 194.658 16.712C195.624 17.64 196.108 18.9353 196.108 20.598C196.108 21.9127 195.624 23.0147 194.658 23.904C193.691 24.7933 192.473 25.238 191.004 25.238C190.308 25.238 189.96 25.064 189.96 24.716C189.96 24.6 190.095 24.3293 190.366 23.904C190.636 23.4787 190.868 23.0533 191.062 22.628C191.255 22.2027 191.352 21.7 191.352 21.12C191.352 20.4627 191.197 19.96 190.888 19.612C190.578 19.2253 190.172 19.032 189.67 19.032C188.858 19.032 188.007 19.5347 187.118 20.54C186.228 21.5453 185.455 23.15 184.798 25.354C184.179 27.558 183.87 30.3613 183.87 33.764C183.87 35.3493 183.986 36.6447 184.218 37.65C184.488 38.6167 184.933 39.5253 185.552 40.376L186.19 41.188L185.552 42H176.33L175.808 40.376ZM205.532 41.594C203.289 40.5887 201.549 38.984 200.312 36.78C199.074 34.576 198.456 31.966 198.456 28.95C198.456 24.7353 199.616 21.41 201.936 18.974C204.256 16.4993 207.388 15.262 211.332 15.262C212.414 15.262 213.555 15.3973 214.754 15.668L215.972 12.246H218.814L217.248 16.538C219.413 17.582 221.095 19.1867 222.294 21.352C223.531 23.4787 224.15 26.0113 224.15 28.95C224.15 31.734 223.608 34.17 222.526 36.258C221.482 38.346 219.993 39.9507 218.06 41.072C216.126 42.1933 213.884 42.754 211.332 42.754C210.404 42.754 209.321 42.6187 208.084 42.348L206.924 45.596H204.14L205.532 41.594ZM213.826 18.452C213.091 18.1427 212.318 17.988 211.506 17.988C209.224 17.988 207.388 18.9933 205.996 21.004C204.642 23.0147 203.966 25.6827 203.966 29.008C203.966 33.1067 204.913 36.142 206.808 38.114L213.826 18.452ZM211.216 39.912C213.42 39.912 215.198 38.926 216.552 36.954C217.944 34.9433 218.64 32.314 218.64 29.066C218.64 27.4807 218.427 25.876 218.002 24.252C217.576 22.628 216.9 21.2553 215.972 20.134L209.128 39.506C209.862 39.7767 210.558 39.912 211.216 39.912ZM253.349 42.754C251.918 42.754 250.894 42.3287 250.275 41.478C249.656 40.5887 249.347 39.158 249.347 37.186V24.658C249.347 22.8793 248.96 21.5453 248.187 20.656C247.414 19.728 246.273 19.264 244.765 19.264C243.257 19.264 241.923 19.8633 240.763 21.062C239.642 22.2607 238.772 23.9427 238.153 26.108C237.534 28.2733 237.225 30.7673 237.225 33.59C237.225 35.214 237.341 36.5287 237.573 37.534C237.844 38.5393 238.288 39.4867 238.907 40.376L239.545 41.188L238.907 42H229.685L229.163 40.376L230.149 40.086C231.077 39.9313 231.676 39.5833 231.947 39.042C232.256 38.462 232.411 37.4953 232.411 36.142V21.41C232.411 20.9847 232.334 20.6947 232.179 20.54C232.024 20.3467 231.754 20.25 231.367 20.25H229.105L228.583 18.858C229.588 17.93 230.748 17.176 232.063 16.596C233.378 16.016 234.538 15.726 235.543 15.726C236.046 15.726 236.452 15.8807 236.761 16.19C237.07 16.4993 237.225 16.886 237.225 17.35V23.092C238.114 20.8107 239.468 18.9353 241.285 17.466C243.102 15.9967 245.016 15.262 247.027 15.262C249.463 15.262 251.242 16.016 252.363 17.524C253.523 19.032 254.103 21.41 254.103 24.658V37.36C254.103 38.5587 254.625 39.158 255.669 39.158C256.52 39.158 257.39 38.7907 258.279 38.056L259.265 39.39C258.376 40.3953 257.39 41.2073 256.307 41.826C255.224 42.4447 254.238 42.754 253.349 42.754ZM275.275 42.754C273.226 42.754 271.312 42.464 269.533 41.884C267.793 41.2653 266.401 40.434 265.357 39.39V6.562C265.357 6.13667 265.28 5.84666 265.125 5.692C264.97 5.49866 264.7 5.402 264.313 5.402H262.051L261.529 4.068C262.534 3.14 263.694 2.386 265.009 1.806C266.324 1.18733 267.503 0.877997 268.547 0.877997C269.05 0.877997 269.456 1.03266 269.765 1.342C270.074 1.65133 270.229 2.05733 270.229 2.56V38.114C271.737 39.2353 273.554 39.796 275.681 39.796C278.04 39.796 279.896 38.8293 281.249 36.896C282.602 34.924 283.279 32.2753 283.279 28.95C283.279 25.702 282.622 23.092 281.307 21.12C279.992 19.148 278.233 18.162 276.029 18.162C275.062 18.162 274.289 18.278 273.709 18.51C273.168 18.7033 272.839 18.8 272.723 18.8C272.53 18.8 272.336 18.684 272.143 18.452C271.988 18.22 271.911 17.9687 271.911 17.698C271.911 17.2727 272.085 16.9247 272.433 16.654C274.018 15.726 275.797 15.262 277.769 15.262C279.896 15.262 281.79 15.8033 283.453 16.886C285.154 17.9687 286.469 19.4767 287.397 21.41C288.364 23.3047 288.847 25.4893 288.847 27.964C288.847 30.748 288.248 33.2807 287.049 35.562C285.889 37.8047 284.284 39.564 282.235 40.84C280.186 42.116 277.866 42.754 275.275 42.754ZM306.375 42.754C302.431 42.754 299.299 41.5167 296.979 39.042C294.659 36.5287 293.499 33.1647 293.499 28.95C293.499 24.7353 294.659 21.41 296.979 18.974C299.299 16.4993 302.431 15.262 306.375 15.262C308.965 15.262 311.227 15.8227 313.161 16.944C315.094 18.0653 316.583 19.6507 317.627 21.7C318.671 23.7493 319.193 26.166 319.193 28.95C319.193 31.734 318.651 34.17 317.569 36.258C316.525 38.346 315.036 39.9507 313.103 41.072C311.169 42.1933 308.927 42.754 306.375 42.754ZM306.259 39.912C308.463 39.912 310.241 38.926 311.595 36.954C312.987 34.9433 313.683 32.314 313.683 29.066C313.683 27.4033 313.451 25.7407 312.987 24.078C312.523 22.3767 311.749 20.946 310.667 19.786C309.623 18.5873 308.25 17.988 306.549 17.988C304.267 17.988 302.431 18.9933 301.039 21.004C299.685 23.0147 299.009 25.6827 299.009 29.008C299.009 32.3333 299.647 34.982 300.923 36.954C302.237 38.926 304.016 39.912 306.259 39.912ZM324.206 40.376L325.192 40.086C326.12 39.9313 326.719 39.5833 326.99 39.042C327.299 38.462 327.454 37.4953 327.454 36.142V21.41C327.454 20.9847 327.377 20.6947 327.222 20.54C327.067 20.3467 326.797 20.25 326.41 20.25H324.148L323.626 18.858C324.631 17.93 325.791 17.176 327.106 16.596C328.421 16.016 329.581 15.726 330.586 15.726C331.089 15.726 331.495 15.8807 331.804 16.19C332.113 16.4993 332.268 16.886 332.268 17.35V23.092H332.558C333.177 20.7333 334.105 18.8387 335.342 17.408C336.618 15.9773 337.991 15.262 339.46 15.262C340.929 15.262 342.128 15.7453 343.056 16.712C344.023 17.64 344.506 18.9353 344.506 20.598C344.506 21.9127 344.023 23.0147 343.056 23.904C342.089 24.7933 340.871 25.238 339.402 25.238C338.706 25.238 338.358 25.064 338.358 24.716C338.358 24.6 338.493 24.3293 338.764 23.904C339.035 23.4787 339.267 23.0533 339.46 22.628C339.653 22.2027 339.75 21.7 339.75 21.12C339.75 20.4627 339.595 19.96 339.286 19.612C338.977 19.2253 338.571 19.032 338.068 19.032C337.256 19.032 336.405 19.5347 335.516 20.54C334.627 21.5453 333.853 23.15 333.196 25.354C332.577 27.558 332.268 30.3613 332.268 33.764C332.268 35.3493 332.384 36.6447 332.616 37.65C332.887 38.6167 333.331 39.5253 333.95 40.376L334.588 41.188L333.95 42H324.728L324.206 40.376ZM359.44 56.674C357.468 56.674 355.806 56.3067 354.452 55.572C353.099 54.876 352.074 53.948 351.378 52.788C350.721 51.6667 350.392 50.4487 350.392 49.134C350.392 47.3553 350.992 45.8473 352.19 44.61C353.389 43.3727 355.032 42.754 357.12 42.754C357.43 42.754 357.662 42.7927 357.816 42.87C357.971 42.986 358.048 43.1213 358.048 43.276C358.048 43.4307 357.797 43.7593 357.294 44.262C356.83 44.8033 356.405 45.4413 356.018 46.176C355.67 46.9107 355.496 47.8387 355.496 48.96C355.496 50.352 355.902 51.512 356.714 52.44C357.565 53.4067 358.686 53.89 360.078 53.89C362.244 53.89 363.829 52.9813 364.834 51.164C365.84 49.3853 366.342 46.988 366.342 43.972V35.678C364.912 37.65 363.423 39.0613 361.876 39.912C360.368 40.7627 358.783 41.188 357.12 41.188C355.419 41.188 353.834 40.7627 352.364 39.912C350.934 39.0613 349.793 37.7853 348.942 36.084C348.092 34.3827 347.666 32.3333 347.666 29.936C347.666 25.412 348.884 21.8353 351.32 19.206C353.795 16.5767 357.14 15.262 361.354 15.262C362.669 15.262 364.525 15.4747 366.922 15.9C367.309 15.9387 368.005 16.0353 369.01 16.19C370.054 16.3447 371.002 16.4607 371.852 16.538L372.374 17.176L371.794 18.162C371.524 18.5487 371.33 18.8773 371.214 19.148C371.098 19.4187 371.04 19.786 371.04 20.25V43.16C371.04 47.452 369.996 50.7773 367.908 53.136C365.859 55.4947 363.036 56.674 359.44 56.674ZM359.266 37.186C360.658 37.186 361.954 36.7993 363.152 36.026C364.39 35.2527 365.453 34.0347 366.342 32.372V19.67C364.834 18.6647 363.152 18.162 361.296 18.162C358.744 18.162 356.734 19.1093 355.264 21.004C353.834 22.86 353.118 25.5087 353.118 28.95C353.118 31.7727 353.698 33.8607 354.858 35.214C356.018 36.5287 357.488 37.186 359.266 37.186ZM421.356 42.754C421.085 42.4833 420.776 42.29 420.428 42.174C420.119 42.058 419.693 42 419.152 42H396.996L396.358 40.318L397.518 40.028C398.794 39.6413 399.645 39.158 400.07 38.578C400.495 37.9593 400.708 36.896 400.708 35.388V14.798C400.708 12.71 400.534 11.028 400.186 9.752C399.838 8.476 399.239 7.258 398.388 6.098L397.692 5.112L398.388 4.3H414.454C417.509 4.3 419.481 3.93266 420.37 3.198L421.414 2.502L422.168 3.198V12.536L420.37 13.174L420.08 11.898C419.616 10.0033 419.017 8.74666 418.282 8.128C417.547 7.50933 416.271 7.2 414.454 7.2H409.292C407.939 7.2 407.03 7.47067 406.566 8.012C406.141 8.55333 405.928 9.636 405.928 11.26V21.352H412.598C413.487 21.352 414.241 21.178 414.86 20.83C415.479 20.482 416.117 19.8633 416.774 18.974L417.18 18.394L418.224 18.974V27.964L416.484 28.602L416.136 27.268C415.749 26.0693 415.169 25.2767 414.396 24.89C413.623 24.5033 412.269 24.31 410.336 24.31H405.928V35.04C405.928 36.1613 406.005 37.012 406.16 37.592C406.353 38.1333 406.682 38.5007 407.146 38.694C407.61 38.8873 408.325 38.984 409.292 38.984H414.918C416.194 38.984 417.18 38.868 417.876 38.636C418.572 38.3653 419.113 37.9013 419.5 37.244C419.925 36.5867 420.312 35.62 420.66 34.344L421.008 33.184L422.748 33.706V42.754L421.762 43.276L421.356 42.754ZM428.651 40.376L429.637 40.086C430.565 39.9313 431.165 39.5833 431.435 39.042C431.745 38.462 431.899 37.4953 431.899 36.142V21.41C431.899 20.9847 431.822 20.6947 431.667 20.54C431.513 20.3467 431.242 20.25 430.855 20.25H428.593L428.071 18.858C429.077 17.93 430.237 17.176 431.551 16.596C432.866 16.016 434.026 15.726 435.031 15.726C435.534 15.726 435.94 15.8807 436.249 16.19C436.559 16.4993 436.713 16.886 436.713 17.35V23.092H437.003C437.622 20.7333 438.55 18.8387 439.787 17.408C441.063 15.9773 442.436 15.262 443.905 15.262C445.375 15.262 446.573 15.7453 447.501 16.712C448.468 17.64 448.951 18.9353 448.951 20.598C448.951 21.9127 448.468 23.0147 447.501 23.904C446.535 24.7933 445.317 25.238 443.847 25.238C443.151 25.238 442.803 25.064 442.803 24.716C442.803 24.6 442.939 24.3293 443.209 23.904C443.48 23.4787 443.712 23.0533 443.905 22.628C444.099 22.2027 444.195 21.7 444.195 21.12C444.195 20.4627 444.041 19.96 443.731 19.612C443.422 19.2253 443.016 19.032 442.513 19.032C441.701 19.032 440.851 19.5347 439.961 20.54C439.072 21.5453 438.299 23.15 437.641 25.354C437.023 27.558 436.713 30.3613 436.713 33.764C436.713 35.3493 436.829 36.6447 437.061 37.65C437.332 38.6167 437.777 39.5253 438.395 40.376L439.033 41.188L438.395 42H429.173L428.651 40.376ZM456.983 10.854C456.403 10.854 455.727 10.448 454.953 9.636C454.18 8.824 453.793 8.08933 453.793 7.432C453.793 6.77466 454.161 6.04 454.895 5.228C455.669 4.416 456.365 4.01 456.983 4.01C457.641 4.01 458.356 4.416 459.129 5.228C459.903 6.04 460.289 6.77466 460.289 7.432C460.289 8.08933 459.903 8.824 459.129 9.636C458.356 10.448 457.641 10.854 456.983 10.854ZM458.723 42.754C457.293 42.754 456.249 42.3287 455.591 41.478C454.973 40.5887 454.663 39.158 454.663 37.186V20.946C454.663 20.482 454.586 20.1533 454.431 19.96C454.277 19.7667 454.006 19.67 453.619 19.67H451.241L450.835 18.394C451.841 17.466 452.981 16.712 454.257 16.132C455.572 15.552 456.713 15.262 457.679 15.262C458.182 15.262 458.588 15.4167 458.897 15.726C459.245 15.9967 459.419 16.364 459.419 16.828V37.36C459.419 38.5587 459.941 39.158 460.985 39.158C461.797 39.158 462.687 38.7907 463.653 38.056L464.639 39.39C463.673 40.3953 462.648 41.2073 461.565 41.826C460.521 42.4447 459.574 42.754 458.723 42.754ZM489.303 42.754C488.22 42.754 487.331 42.5413 486.635 42.116C485.977 41.7293 485.397 41.188 484.895 40.492C484.431 39.7573 483.812 38.6553 483.039 37.186L479.095 29.762L478.631 29.588C477.973 29.4333 477.645 29.0853 477.645 28.544C477.645 28.312 477.703 28.08 477.819 27.848C477.973 27.616 478.186 27.5 478.457 27.5C478.573 27.5 478.921 27.5967 479.501 27.79C480.081 27.9447 480.835 28.022 481.763 28.022C483.657 28.022 485.146 27.4613 486.229 26.34C487.311 25.2187 487.853 23.9427 487.853 22.512C487.853 21.468 487.543 20.598 486.925 19.902C486.306 19.1673 485.417 18.8 484.257 18.8C481.666 18.8 479.597 20.1533 478.051 22.86C476.543 25.5667 475.789 29.1433 475.789 33.59C475.789 35.2527 475.905 36.5867 476.137 37.592C476.407 38.5973 476.871 39.5253 477.529 40.376L478.167 41.188L477.529 42H468.307L467.669 40.376L468.829 40.086C469.718 39.9313 470.298 39.5833 470.569 39.042C470.878 38.462 471.033 37.4953 471.033 36.142V6.562C471.033 6.13667 470.955 5.84666 470.801 5.692C470.646 5.49866 470.375 5.402 469.989 5.402H467.611L467.205 4.068C468.21 3.14 469.351 2.386 470.627 1.806C471.941 1.18733 473.082 0.877997 474.049 0.877997C474.551 0.877997 474.957 1.03266 475.267 1.342C475.615 1.65133 475.789 2.05733 475.789 2.56V23.092C476.678 20.772 477.993 18.8967 479.733 17.466C481.511 15.9967 483.387 15.262 485.359 15.262C487.679 15.262 489.457 15.9193 490.695 17.234C491.971 18.5487 492.609 20.1533 492.609 22.048C492.609 24.02 491.913 25.7987 490.521 27.384C489.129 28.9307 487.234 29.8393 484.837 30.11L488.839 37.94C489.38 38.9067 490.115 39.39 491.043 39.39C491.545 39.39 492.048 39.274 492.551 39.042C493.053 38.7713 493.479 38.4427 493.827 38.056L494.987 39.39C493.324 41.6327 491.429 42.754 489.303 42.754ZM507.997 42.754C505.368 42.754 503.183 42.1547 501.443 40.956C499.703 39.7187 498.833 38.114 498.833 36.142C498.833 34.982 499.239 34.0153 500.051 33.242C500.902 32.43 501.965 32.024 503.241 32.024C503.512 32.024 503.763 32.082 503.995 32.198C504.227 32.314 504.343 32.4687 504.343 32.662C504.343 32.778 504.227 33.126 503.995 33.706C503.763 34.2473 503.647 34.9047 503.647 35.678C503.647 37.1087 504.15 38.2107 505.155 38.984C506.199 39.7573 507.359 40.144 508.635 40.144C510.105 40.144 511.303 39.7573 512.231 38.984C513.159 38.2107 513.623 37.2053 513.623 35.968C513.623 34.8467 513.121 33.9187 512.115 33.184C511.149 32.4493 509.737 31.6953 507.881 30.922C506.18 30.1873 504.749 29.4913 503.589 28.834C502.468 28.1767 501.501 27.3067 500.689 26.224C499.877 25.1413 499.471 23.8267 499.471 22.28C499.471 20.2307 500.38 18.5487 502.197 17.234C504.015 15.9193 506.296 15.262 509.041 15.262C511.555 15.262 513.623 15.7453 515.247 16.712C516.871 17.64 517.683 18.9353 517.683 20.598C517.683 21.9513 517.277 23.0533 516.465 23.904C515.653 24.7547 514.59 25.18 513.275 25.18C512.502 25.18 512.115 24.9287 512.115 24.426C512.115 24.2713 512.251 23.9233 512.521 23.382C512.831 22.8407 512.985 22.222 512.985 21.526C512.985 20.2887 512.541 19.3607 511.651 18.742C510.762 18.0847 509.757 17.756 508.635 17.756C507.205 17.756 506.064 18.104 505.213 18.8C504.401 19.496 503.995 20.4047 503.995 21.526C503.995 22.8407 504.537 23.9233 505.619 24.774C506.702 25.586 508.229 26.3593 510.201 27.094C511.903 27.8287 513.314 28.5053 514.435 29.124C515.557 29.7427 516.504 30.5353 517.277 31.502C518.051 32.43 518.437 33.532 518.437 34.808C518.437 37.2053 517.471 39.1387 515.537 40.608C513.643 42.0387 511.129 42.754 507.997 42.754ZM535.695 42.754C533.259 42.754 531.132 42.1933 529.315 41.072C527.498 39.9507 526.086 38.3847 525.081 36.374C524.076 34.3247 523.573 31.966 523.573 29.298C523.573 26.514 524.134 24.0587 525.255 21.932C526.376 19.8053 527.962 18.162 530.011 17.002C532.099 15.842 534.496 15.262 537.203 15.262C540.064 15.262 542.268 16.016 543.815 17.524C545.4 19.032 546.193 20.8493 546.193 22.976C546.193 24.4453 545.787 25.8567 544.975 27.21C544.202 28.5633 543.042 29.6653 541.495 30.516C539.987 31.3667 538.208 31.792 536.159 31.792C534.999 31.792 533.742 31.5987 532.389 31.212C531.036 30.7867 530.359 30.168 530.359 29.356C530.359 29.0467 530.436 28.776 530.591 28.544C530.746 28.312 530.92 28.196 531.113 28.196C531.229 28.196 531.577 28.312 532.157 28.544C532.776 28.7373 533.568 28.834 534.535 28.834C536.662 28.834 538.305 28.254 539.465 27.094C540.625 25.934 541.205 24.542 541.205 22.918C541.205 21.526 540.741 20.3273 539.813 19.322C538.924 18.3167 537.725 17.814 536.217 17.814C533.936 17.814 532.157 18.8193 530.881 20.83C529.644 22.802 529.025 25.6247 529.025 29.298C529.025 32.43 529.682 34.8853 530.997 36.664C532.35 38.404 534.284 39.274 536.797 39.274C539.89 39.274 542.442 38.2687 544.453 36.258C544.569 36.142 544.724 36.084 544.917 36.084C545.226 36.084 545.536 36.2387 545.845 36.548C546.193 36.8573 546.367 37.186 546.367 37.534C546.367 37.65 546.328 37.766 546.251 37.882C546.174 37.9593 546.135 38.0173 546.135 38.056C544.82 39.6027 543.254 40.782 541.437 41.594C539.658 42.3673 537.744 42.754 535.695 42.754ZM575.861 42.754C574.43 42.754 573.406 42.3287 572.787 41.478C572.168 40.5887 571.859 39.158 571.859 37.186V24.658C571.859 22.8793 571.472 21.5453 570.699 20.656C569.926 19.728 568.785 19.264 567.277 19.264C565.769 19.264 564.435 19.8633 563.275 21.062C562.154 22.2607 561.284 23.9427 560.665 26.108C560.046 28.2733 559.737 30.7673 559.737 33.59C559.737 35.214 559.853 36.5287 560.085 37.534C560.356 38.5393 560.8 39.4867 561.419 40.376L562.057 41.188L561.419 42H552.197L551.675 40.376L552.661 40.086C553.589 39.9313 554.188 39.5833 554.459 39.042C554.768 38.462 554.923 37.4953 554.923 36.142V21.41C554.923 20.9847 554.846 20.6947 554.691 20.54C554.536 20.3467 554.266 20.25 553.879 20.25H551.617L551.095 18.858C552.1 17.93 553.26 17.176 554.575 16.596C555.89 16.016 557.05 15.726 558.055 15.726C558.558 15.726 558.964 15.8807 559.273 16.19C559.582 16.4993 559.737 16.886 559.737 17.35V23.092C560.626 20.8107 561.98 18.9353 563.797 17.466C565.614 15.9967 567.528 15.262 569.539 15.262C571.975 15.262 573.754 16.016 574.875 17.524C576.035 19.032 576.615 21.41 576.615 24.658V37.36C576.615 38.5587 577.137 39.158 578.181 39.158C579.032 39.158 579.902 38.7907 580.791 38.056L581.777 39.39C580.888 40.3953 579.902 41.2073 578.819 41.826C577.736 42.4447 576.75 42.754 575.861 42.754Z" fill="#FEB833" fill-opacity="0.66"/>
</svg>
