<svg width="582" height="73" viewBox="0 0 582 73" fill="none" xmlns="http://www.w3.org/2000/svg">
<path d="M0.6 67.9L2.8 67.4C5.06667 66.8 6.56667 65.9667 7.3 64.9C8.1 63.7667 8.5 61.8 8.5 59V14.2C8.5 13.4 8.33333 12.8667 8 12.6C7.66667 12.2667 7.16667 12.1 6.5 12.1H1.3L0.2 8.7C2.8 7.7 6.23333 6.8 10.5 6C14.7667 5.13333 18.8667 4.7 22.8 4.7C31.6667 4.7 38.2667 6.7 42.6 10.7C46.9333 14.7 49.1 19.8667 49.1 26.2C49.1 30.1333 48.3 33.7 46.7 36.9C45.1667 40.1 42.7667 42.6667 39.5 44.6C36.3 46.4667 32.3 47.4 27.5 47.4C25.3667 47.4 23.5 47.1333 21.9 46.6C20.3 46 19.5 45.2 19.5 44.2C19.5 43.6 19.6 43.1 19.8 42.7C20.0667 42.2333 20.4333 42 20.9 42C21.1 42 21.6 42.1333 22.4 42.4C23.2 42.6 24.1667 42.7 25.3 42.7C29.8333 42.7 33.3667 41.2333 35.9 38.3C38.5 35.3667 39.8 31.4667 39.8 26.6C39.8 21.6667 38.4333 17.6333 35.7 14.5C33.0333 11.3 29.2333 9.7 24.3 9.7C19.7667 9.7 17.5 11.1333 17.5 14V52.8C17.5 56.5333 17.8 59.5 18.4 61.7C19 63.8333 20.0667 65.9 21.6 67.9L22.8 69.5L21.6 71H1.7L0.6 67.9ZM55.5063 68.2L57.2063 67.7C58.8063 67.4333 59.8396 66.8333 60.3063 65.9C60.8396 64.9 61.1063 63.2333 61.1063 60.9V35.5C61.1063 34.7667 60.9729 34.2667 60.7063 34C60.4396 33.6667 59.9729 33.5 59.3063 33.5H55.4063L54.5063 31.1C56.2396 29.5 58.2396 28.2 60.5063 27.2C62.7729 26.2 64.7729 25.7 66.5063 25.7C67.3729 25.7 68.0729 25.9667 68.6063 26.5C69.1396 27.0333 69.4063 27.7 69.4063 28.5V38.4H69.9063C70.9729 34.3333 72.5729 31.0667 74.7063 28.6C76.9063 26.1333 79.2729 24.9 81.8063 24.9C84.3396 24.9 86.4063 25.7333 88.0063 27.4C89.6729 29 90.5063 31.2333 90.5063 34.1C90.5063 36.3667 89.6729 38.2667 88.0063 39.8C86.3396 41.3333 84.2396 42.1 81.7063 42.1C80.5063 42.1 79.9063 41.8 79.9063 41.2C79.9063 41 80.1396 40.5333 80.6063 39.8C81.0729 39.0667 81.4729 38.3333 81.8063 37.6C82.1396 36.8667 82.3063 36 82.3063 35C82.3063 33.8667 82.0396 33 81.5063 32.4C80.9729 31.7333 80.2729 31.4 79.4063 31.4C78.0063 31.4 76.5396 32.2667 75.0063 34C73.4729 35.7333 72.1396 38.5 71.0063 42.3C69.9396 46.1 69.4063 50.9333 69.4063 56.8C69.4063 59.5333 69.6063 61.7667 70.0063 63.5C70.4729 65.1667 71.2396 66.7333 72.3063 68.2L73.4063 69.6L72.3063 71H56.4063L55.5063 68.2ZM110.955 72.3C108.021 72.3 105.288 71.4667 102.755 69.8C100.288 68.0667 98.288 65.5667 96.7547 62.3C95.288 58.9667 94.5547 54.9333 94.5547 50.2C94.5547 42.4 96.6547 36.2333 100.855 31.7C105.121 27.1667 110.855 24.9 118.055 24.9C120.455 24.9 123.721 25.2667 127.855 26C130.921 26.5333 133.688 26.9 136.155 27.1L137.355 28.2L136.055 29.9C135.588 30.7 135.255 31.3333 135.055 31.8C134.921 32.2 134.855 32.7667 134.855 33.5V63C134.855 64.8667 135.821 65.8 137.755 65.8C139.221 65.8 140.721 65.2667 142.255 64.2L143.955 66.5C142.355 68.3 140.655 69.7333 138.855 70.8C137.055 71.8 135.421 72.3 133.955 72.3C131.421 72.3 129.588 71.5667 128.455 70.1C127.321 68.5667 126.755 66.1 126.755 62.7C124.355 66.2333 121.855 68.7333 119.255 70.2C116.721 71.6 113.955 72.3 110.955 72.3ZM114.455 65.2C119.521 65.2 123.621 62.4667 126.755 57V32.5C124.155 30.7667 121.221 29.9 117.955 29.9C113.621 29.9 110.221 31.5333 107.755 34.8C105.355 38 104.155 42.5667 104.155 48.5C104.155 54.2333 105.121 58.4667 107.055 61.2C109.055 63.8667 111.521 65.2 114.455 65.2ZM186.445 72.3C184.578 72.3 183.045 71.9333 181.845 71.2C180.711 70.5333 179.711 69.6 178.845 68.4C178.045 67.1333 176.978 65.2333 175.645 62.7L168.845 49.9L168.045 49.6C166.911 49.3333 166.345 48.7333 166.345 47.8C166.345 47.4 166.445 47 166.645 46.6C166.911 46.2 167.278 46 167.745 46C167.945 46 168.545 46.1667 169.545 46.5C170.545 46.7667 171.845 46.9 173.445 46.9C176.711 46.9 179.278 45.9333 181.145 44C183.011 42.0667 183.945 39.8667 183.945 37.4C183.945 35.6 183.411 34.1 182.345 32.9C181.278 31.6333 179.745 31 177.745 31C173.278 31 169.711 33.3333 167.045 38C164.445 42.6667 163.145 48.8333 163.145 56.5C163.145 59.3667 163.345 61.6667 163.745 63.4C164.211 65.1333 165.011 66.7333 166.145 68.2L167.245 69.6L166.145 71H150.245L149.145 68.2L151.145 67.7C152.678 67.4333 153.678 66.8333 154.145 65.9C154.678 64.9 154.945 63.2333 154.945 60.9V9.9C154.945 9.16666 154.811 8.66666 154.545 8.4C154.278 8.06666 153.811 7.9 153.145 7.9H149.045L148.345 5.6C150.078 4 152.045 2.7 154.245 1.7C156.511 0.633329 158.478 0.0999949 160.145 0.0999949C161.011 0.0999949 161.711 0.366662 162.245 0.899997C162.845 1.43333 163.145 2.13333 163.145 3V38.4C164.678 34.4 166.945 31.1667 169.945 28.7C173.011 26.1667 176.245 24.9 179.645 24.9C183.645 24.9 186.711 26.0333 188.845 28.3C191.045 30.5667 192.145 33.3333 192.145 36.6C192.145 40 190.945 43.0667 188.545 45.8C186.145 48.4667 182.878 50.0333 178.745 50.5L185.645 64C186.578 65.6667 187.845 66.5 189.445 66.5C190.311 66.5 191.178 66.3 192.045 65.9C192.911 65.4333 193.645 64.8667 194.245 64.2L196.245 66.5C193.378 70.3667 190.111 72.3 186.445 72.3ZM214.777 72.3C212.31 72.3 210.377 71.5333 208.977 70C207.577 68.4 206.877 66.2333 206.877 63.5V31.6H198.977C198.977 30 199.11 28.9667 199.377 28.5C199.643 27.9667 200.243 27.5667 201.177 27.3C204.377 26.5 206.643 25.1667 207.977 23.3C209.31 21.4333 210.31 18.9667 210.977 15.9C211.11 14.9667 211.41 14.4 211.877 14.2C212.41 13.9333 213.543 13.8 215.277 13.8V26H226.977C226.977 27.2667 226.777 28.4 226.377 29.4C226.043 30.4 225.577 31.1333 224.977 31.6H215.277V60.9C215.277 62.7667 215.51 64.1 215.977 64.9C216.51 65.6333 217.41 66 218.677 66C220.477 66 222.51 65.0333 224.777 63.1L226.477 65.5C224.943 67.5 223.077 69.1333 220.877 70.4C218.677 71.6667 216.643 72.3 214.777 72.3ZM242.538 17.3C241.538 17.3 240.372 16.6 239.038 15.2C237.705 13.8 237.038 12.5333 237.038 11.4C237.038 10.2667 237.672 9 238.938 7.6C240.272 6.2 241.472 5.5 242.538 5.5C243.672 5.5 244.905 6.2 246.238 7.6C247.572 9 248.238 10.2667 248.238 11.4C248.238 12.5333 247.572 13.8 246.238 15.2C244.905 16.6 243.672 17.3 242.538 17.3ZM245.538 72.3C243.072 72.3 241.272 71.5667 240.138 70.1C239.072 68.5667 238.538 66.1 238.538 62.7V34.7C238.538 33.9 238.405 33.3333 238.138 33C237.872 32.6667 237.405 32.5 236.738 32.5H232.638L231.938 30.3C233.672 28.7 235.638 27.4 237.838 26.4C240.105 25.4 242.072 24.9 243.738 24.9C244.605 24.9 245.305 25.1667 245.838 25.7C246.438 26.1667 246.738 26.8 246.738 27.6V63C246.738 65.0667 247.638 66.1 249.438 66.1C250.838 66.1 252.372 65.4667 254.038 64.2L255.738 66.5C254.072 68.2333 252.305 69.6333 250.438 70.7C248.638 71.7667 247.005 72.3 245.538 72.3ZM298.261 72.3C296.394 72.3 294.861 71.9333 293.661 71.2C292.528 70.5333 291.528 69.6 290.661 68.4C289.861 67.1333 288.794 65.2333 287.461 62.7L280.661 49.9L279.861 49.6C278.728 49.3333 278.161 48.7333 278.161 47.8C278.161 47.4 278.261 47 278.461 46.6C278.728 46.2 279.094 46 279.561 46C279.761 46 280.361 46.1667 281.361 46.5C282.361 46.7667 283.661 46.9 285.261 46.9C288.528 46.9 291.094 45.9333 292.961 44C294.828 42.0667 295.761 39.8667 295.761 37.4C295.761 35.6 295.228 34.1 294.161 32.9C293.094 31.6333 291.561 31 289.561 31C285.094 31 281.528 33.3333 278.861 38C276.261 42.6667 274.961 48.8333 274.961 56.5C274.961 59.3667 275.161 61.6667 275.561 63.4C276.028 65.1333 276.828 66.7333 277.961 68.2L279.061 69.6L277.961 71H262.061L260.961 68.2L262.961 67.7C264.494 67.4333 265.494 66.8333 265.961 65.9C266.494 64.9 266.761 63.2333 266.761 60.9V9.9C266.761 9.16666 266.628 8.66666 266.361 8.4C266.094 8.06666 265.628 7.9 264.961 7.9H260.861L260.161 5.6C261.894 4 263.861 2.7 266.061 1.7C268.328 0.633329 270.294 0.0999949 271.961 0.0999949C272.828 0.0999949 273.528 0.366662 274.061 0.899997C274.661 1.43333 274.961 2.13333 274.961 3V38.4C276.494 34.4 278.761 31.1667 281.761 28.7C284.828 26.1667 288.061 24.9 291.461 24.9C295.461 24.9 298.528 26.0333 300.661 28.3C302.861 30.5667 303.961 33.3333 303.961 36.6C303.961 40 302.761 43.0667 300.361 45.8C297.961 48.4667 294.694 50.0333 290.561 50.5L297.461 64C298.394 65.6667 299.661 66.5 301.261 66.5C302.128 66.5 302.994 66.3 303.861 65.9C304.728 65.4333 305.461 64.8667 306.061 64.2L308.061 66.5C305.194 70.3667 301.928 72.3 298.261 72.3ZM344.052 66.4C353.719 58.4667 361.052 51.8667 366.052 46.6C371.052 41.3333 374.452 36.8333 376.252 33.1C378.052 29.3667 378.952 25.5333 378.952 21.6C378.952 17.8667 377.786 14.9667 375.452 12.9C373.119 10.7667 370.352 9.7 367.152 9.7C363.886 9.7 361.052 10.7333 358.652 12.8C356.252 14.8 355.052 17.6333 355.052 21.3C355.052 22.7667 355.252 24 355.652 25C356.052 25.9333 356.519 26.8 357.052 27.6C357.586 28.4 357.852 28.9 357.852 29.1C357.852 29.6333 357.686 29.9667 357.352 30.1C357.086 30.1667 356.552 30.2 355.752 30.2C353.019 30.2 350.719 29.3 348.852 27.5C347.052 25.7 346.152 23.4 346.152 20.6C346.152 17.2 347.119 14.3 349.052 11.9C351.052 9.5 353.652 7.7 356.852 6.5C360.052 5.3 363.486 4.7 367.152 4.7C373.952 4.7 379.319 6.16666 383.252 9.1C387.252 12.0333 389.252 16.2333 389.252 21.7C389.252 27.5667 386.419 33.7667 380.752 40.3C375.152 46.7667 367.152 54.2667 356.752 62.8H390.952C390.952 64.4 390.719 65.9667 390.252 67.5C389.786 68.9667 389.019 70.1333 387.952 71H346.452L344.052 66.4ZM430.523 72.3C424.723 72.3 419.956 70.6667 416.223 67.4C412.489 64.1333 409.789 59.9333 408.123 54.8C406.456 49.6667 405.623 44.2 405.623 38.4C405.623 32.1333 406.723 26.4667 408.923 21.4C411.123 16.2667 414.256 12.2 418.323 9.2C422.456 6.2 427.256 4.7 432.723 4.7C437.989 4.7 442.489 6.1 446.223 8.89999C449.956 11.7 452.756 15.5 454.623 20.3C456.556 25.1 457.523 30.5 457.523 36.5C457.523 43.1 456.456 49.1333 454.323 54.6C452.189 60 449.089 64.3 445.023 67.5C440.956 70.7 436.123 72.3 430.523 72.3ZM431.523 67.1C436.789 67.1 440.823 64.4333 443.623 59.1C446.489 53.7 447.923 46.8667 447.923 38.6C447.923 30.2667 446.489 23.4 443.623 18C440.823 12.5333 436.789 9.8 431.523 9.8C426.189 9.8 422.123 12.5333 419.323 18C416.523 23.4 415.123 30.2667 415.123 38.6C415.123 46.9333 416.523 53.7667 419.323 59.1C422.123 64.4333 426.189 67.1 431.523 67.1ZM472.959 66.4C482.625 58.4667 489.959 51.8667 494.959 46.6C499.959 41.3333 503.359 36.8333 505.159 33.1C506.959 29.3667 507.859 25.5333 507.859 21.6C507.859 17.8667 506.692 14.9667 504.359 12.9C502.025 10.7667 499.259 9.7 496.059 9.7C492.792 9.7 489.959 10.7333 487.559 12.8C485.159 14.8 483.959 17.6333 483.959 21.3C483.959 22.7667 484.159 24 484.559 25C484.959 25.9333 485.425 26.8 485.959 27.6C486.492 28.4 486.759 28.9 486.759 29.1C486.759 29.6333 486.592 29.9667 486.259 30.1C485.992 30.1667 485.459 30.2 484.659 30.2C481.925 30.2 479.625 29.3 477.759 27.5C475.959 25.7 475.059 23.4 475.059 20.6C475.059 17.2 476.025 14.3 477.959 11.9C479.959 9.5 482.559 7.7 485.759 6.5C488.959 5.3 492.392 4.7 496.059 4.7C502.859 4.7 508.225 6.16666 512.159 9.1C516.159 12.0333 518.159 16.2333 518.159 21.7C518.159 27.5667 515.325 33.7667 509.659 40.3C504.059 46.7667 496.059 54.2667 485.659 62.8H519.859C519.859 64.4 519.625 65.9667 519.159 67.5C518.692 68.9667 517.925 70.1333 516.859 71H475.359L472.959 66.4ZM554.529 67.9L558.329 67C559.996 66.6 561.196 66.1667 561.929 65.7C562.729 65.1667 563.262 64.4 563.529 63.4C563.862 62.4 564.029 60.9333 564.029 59V56.4H531.929L552.829 6H558.629L560.329 7.4L540.729 50.5H564.029V38.4C564.029 36.4667 563.862 34.9333 563.529 33.8C563.262 32.6 562.729 31.3667 561.929 30.1L563.129 28.6L573.029 27.5V50.5H581.429C581.429 53.3667 580.762 55.3333 579.429 56.4H573.129C573.196 58.8667 573.562 61 574.229 62.8C574.896 64.5333 575.862 66.2333 577.129 67.9L578.229 69.5L577.129 71H555.529L554.529 67.9Z" fill="#FEB833"/>
</svg>
